<svg width="17" height="17" viewBox="0 0 17 17" fill="none" xmlns="http://www.w3.org/2000/svg">
<path fill-rule="evenodd" clip-rule="evenodd" d="M8.5 4.136C9.284 4.136 10.012 4.332 10.682 4.724C11.352 5.116 11.884 5.648 12.276 6.318C12.668 6.988 12.864 7.716 12.864 8.5C12.864 9.284 12.668 10.012 12.276 10.682C11.893 11.3434 11.3434 11.893 10.682 12.276C10.0211 12.6655 9.2671 12.8687 8.5 12.864C7.7329 12.8687 6.97886 12.6655 6.318 12.276C5.65661 11.893 5.10705 11.3434 4.724 10.682C4.33449 10.0211 4.13129 9.2671 4.136 8.5C4.136 7.716 4.332 6.988 4.724 6.318C5.10705 5.65661 5.65661 5.10705 6.318 4.724C6.97886 4.33449 7.7329 4.13129 8.5 4.136ZM8.5 11.475C9.32 11.475 10.02 11.184 10.602 10.602C10.8834 10.3299 11.106 10.0029 11.2562 9.64141C11.4063 9.27989 11.4808 8.89142 11.475 8.5C11.475 7.68 11.184 6.98 10.602 6.398C10.3299 6.1166 10.0029 5.89395 9.64141 5.7438C9.27989 5.59366 8.89142 5.51919 8.5 5.525C7.68 5.525 6.98 5.816 6.398 6.398C6.1166 6.67014 5.89395 6.99706 5.7438 7.35859C5.59366 7.72011 5.51919 8.10858 5.525 8.5C5.525 9.32 5.816 10.02 6.398 10.602C6.67014 10.8834 6.99706 11.106 7.35859 11.2562C7.72011 11.4063 8.10858 11.4808 8.5 11.475ZM14.078 3.946C14.0565 4.21614 13.9428 4.47068 13.756 4.667C13.6675 4.76486 13.559 4.84262 13.4379 4.89506C13.3168 4.9475 13.1859 4.97339 13.054 4.971C12.9194 4.97227 12.786 4.94595 12.662 4.89367C12.538 4.84138 12.426 4.76424 12.333 4.667C12.2359 4.57408 12.1588 4.46226 12.1065 4.33844C12.0543 4.21462 12.0279 4.0814 12.029 3.947C12.029 3.668 12.13 3.427 12.333 3.225C12.426 3.12807 12.5379 3.05118 12.6617 2.99907C12.7855 2.94697 12.9187 2.92074 13.053 2.922C13.332 2.922 13.573 3.023 13.775 3.225C13.8721 3.31812 13.949 3.43014 14.0011 3.55414C14.0532 3.67814 14.0794 3.8115 14.078 3.946ZM16.962 4.971C16.987 5.679 17 6.856 17 8.5C17 10.144 16.981 11.327 16.943 12.048C16.905 12.769 16.798 13.395 16.621 13.926C16.4004 14.5473 16.0437 15.1114 15.577 15.577C15.1116 16.0436 14.5479 16.4003 13.927 16.621C13.395 16.798 12.769 16.905 12.048 16.943C11.327 16.981 10.144 17 8.5 17C6.856 17 5.673 16.981 4.952 16.943C4.231 16.905 3.605 16.785 3.074 16.583C2.45044 16.386 1.88393 16.0409 1.423 15.577C0.95643 15.1116 0.599739 14.5479 0.379 13.927C0.202 13.395 0.0950002 12.769 0.0570002 12.048C0.0190002 11.327 0 10.144 0 8.5C0 6.856 0.0190002 5.673 0.0570002 4.952C0.0950002 4.231 0.202 3.605 0.379 3.074C0.599606 2.45274 0.956305 1.88865 1.423 1.423C1.88836 0.95643 2.4521 0.599739 3.073 0.379C3.605 0.202 4.231 0.0950002 4.952 0.0570002C5.673 0.0190002 6.856 0 8.5 0C10.144 0 11.327 0.0190002 12.048 0.0570002C12.769 0.0950002 13.395 0.202 13.926 0.379C14.5473 0.599606 15.1114 0.956305 15.577 1.423C16.0436 1.88836 16.4003 2.4521 16.621 3.073C16.798 3.605 16.911 4.237 16.962 4.971ZM15.349 13.666C15.506 13.223 15.61 12.518 15.662 11.553C15.6925 10.7444 15.7059 9.93519 15.702 9.126V7.874C15.702 6.804 15.688 5.995 15.662 5.447C15.61 4.456 15.506 3.751 15.349 3.334C15.2078 2.94791 14.9841 2.59729 14.6934 2.30661C14.4027 2.01592 14.0521 1.79218 13.666 1.651C13.249 1.494 12.544 1.39 11.553 1.338C10.7444 1.30747 9.93519 1.29413 9.126 1.298H7.874C7.06481 1.29413 6.25562 1.30747 5.447 1.338C4.482 1.39 3.777 1.494 3.334 1.651C2.94791 1.79218 2.59729 2.01592 2.30661 2.30661C2.01592 2.59729 1.79218 2.94791 1.651 3.334C1.494 3.751 1.39 4.456 1.338 5.447C1.30747 6.25562 1.29413 7.06481 1.298 7.874V9.126C1.29413 9.93519 1.30747 10.7444 1.338 11.553C1.39 12.518 1.494 13.223 1.651 13.666C1.991 14.476 2.551 15.036 3.334 15.349C3.777 15.506 4.482 15.61 5.447 15.662C6.25562 15.6925 7.06481 15.7059 7.874 15.702H9.126C10.196 15.702 11.005 15.688 11.553 15.662C12.544 15.61 13.249 15.506 13.666 15.349C14.476 15.009 15.036 14.449 15.349 13.666Z" fill="#CCCCCC"/>
</svg>
