<svg width="13" height="21" viewBox="0 0 13 21" fill="none" xmlns="http://www.w3.org/2000/svg">
<path d="M6.50003 10.3041C7.12994 10.3132 7.75537 10.197 8.33998 9.96231C8.92459 9.72758 9.45671 9.37897 9.90538 8.93675C10.3541 8.49453 10.7104 7.96753 10.9535 7.38639C11.1967 6.80525 11.322 6.18156 11.322 5.55158C11.322 4.92161 11.1967 4.29792 10.9535 3.71678C10.7104 3.13564 10.3541 2.60864 9.90538 2.16642C9.45671 1.7242 8.92459 1.37559 8.33998 1.14086C7.75537 0.906123 7.12994 0.789947 6.50003 0.799084C5.23945 0.799084 4.03051 1.29984 3.13915 2.19121C2.24779 3.08257 1.74703 4.29151 1.74703 5.55208C1.74703 6.81266 2.24779 8.0216 3.13915 8.91296C4.03051 9.80432 5.23945 10.3051 6.50003 10.3051M11.979 11.7941C11.71 11.2551 10.967 10.8071 9.97903 11.5851C8.64403 12.6371 6.50003 12.6371 6.50003 12.6371C6.50003 12.6371 4.35603 12.6371 3.02003 11.5851C2.03303 10.8071 1.29003 11.2551 1.02103 11.7951C0.553027 12.7351 1.08203 13.1881 2.27503 13.9551C3.29403 14.6081 4.69303 14.8531 5.59703 14.9441L4.84303 15.6981L2.04303 18.4991C1.83876 18.7035 1.72402 18.9806 1.72402 19.2696C1.72402 19.5585 1.83876 19.8357 2.04303 20.0401L2.17103 20.1691C2.37538 20.373 2.65231 20.4876 2.94103 20.4876C3.22975 20.4876 3.50667 20.373 3.71103 20.1691L6.51303 17.3691L9.31303 20.1691C9.41425 20.2704 9.53445 20.3507 9.66674 20.4056C9.79903 20.4604 9.94083 20.4886 10.084 20.4886C10.2272 20.4886 10.369 20.4604 10.5013 20.4056C10.6336 20.3507 10.7538 20.2704 10.855 20.1691L10.983 20.0401C11.187 19.8357 11.3015 19.5588 11.3015 19.2701C11.3015 18.9814 11.187 18.7044 10.983 18.5001L8.18303 15.6981L7.42503 14.9411C8.33003 14.8481 9.71503 14.6031 10.725 13.9541C11.918 13.1881 12.446 12.7341 11.979 11.7941V11.7941ZM6.50003 3.21408C7.1201 3.21408 7.71478 3.46041 8.15324 3.89887C8.5917 4.33733 8.83803 4.93201 8.83803 5.55208C8.83803 6.17216 8.5917 6.76684 8.15324 7.2053C7.71478 7.64376 7.1201 7.89008 6.50003 7.89008C5.87995 7.89008 5.28527 7.64376 4.84681 7.2053C4.40835 6.76684 4.16203 6.17216 4.16203 5.55208C4.16203 4.93201 4.40835 4.33733 4.84681 3.89887C5.28527 3.46041 5.87995 3.21408 6.50003 3.21408Z" stroke="#CCCCCC" stroke-linecap="round" stroke-linejoin="round"/>
</svg>
