<svg width="23" height="18" viewBox="0 0 23 18" fill="none" xmlns="http://www.w3.org/2000/svg">
<path fill-rule="evenodd" clip-rule="evenodd" d="M19.667 5.81688C19.67 5.88788 19.672 5.96588 19.672 6.05088C19.672 7.81988 19.242 9.52788 18.387 11.1639C17.504 12.9059 16.26 14.2969 14.667 15.3269C12.919 16.4839 10.913 17.0619 8.65999 17.0619C6.50199 17.0619 4.52099 16.4839 2.72999 15.3309L1.01599 14.2279L3.04599 14.4119C3.28699 14.4339 3.56599 14.4449 3.87899 14.4449C5.01471 14.4551 6.13488 14.1804 7.13699 13.6459C6.73699 13.5089 6.36199 13.3059 6.01699 13.0379C5.3327 12.5198 4.82493 11.8032 4.56299 10.9859L4.32899 10.2589L4.69399 10.2949C4.51515 10.1364 4.34898 9.96424 4.19699 9.77988C3.57178 9.04295 3.23153 8.10627 3.23799 7.13988V6.19388L3.78599 6.51788C3.42143 5.89079 3.23216 5.17722 3.23799 4.45188C3.23799 3.71488 3.43899 3.01088 3.83699 2.34788L4.20699 1.72988L4.65699 2.29388C5.52189 3.38288 6.61127 4.27274 7.85099 4.90288C8.93799 5.46088 10.086 5.80288 11.297 5.92888C11.292 5.82888 11.289 5.72888 11.289 5.62888C11.289 4.88488 11.476 4.18488 11.847 3.53488C12.219 2.88488 12.727 2.36988 13.365 1.99788C13.9954 1.62757 14.7139 1.43411 15.445 1.43788C16.055 1.43788 16.625 1.55788 17.149 1.79988C17.5693 1.99296 17.9589 2.24703 18.305 2.55388C18.9906 2.39773 19.6488 2.1388 20.257 1.78588L21.387 1.12988L20.983 2.37288C20.8782 2.69895 20.7345 3.0112 20.555 3.30288C20.637 3.27088 20.719 3.23688 20.801 3.20088L22.398 2.50988L21.412 3.94288C20.9269 4.65099 20.3388 5.28263 19.667 5.81688V5.81688Z" stroke="#CCCCCC" stroke-linecap="round" stroke-linejoin="round"/>
</svg>
