<svg width="22" height="14" viewBox="0 0 22 14" fill="none" xmlns="http://www.w3.org/2000/svg">
<path fill-rule="evenodd" clip-rule="evenodd" d="M20.6469 2.514C20.5569 2.938 20.2589 3.558 19.7449 4.414C19.3264 5.10827 18.8987 5.797 18.4619 6.48C17.9469 7.223 17.7949 7.44 17.7989 7.422C17.7089 7.557 17.6719 7.642 17.6719 7.637C17.6719 7.611 17.6919 7.651 17.7539 7.724L18.0579 8.061C19.8029 9.855 20.7789 11.085 21.0319 11.875C21.1379 12.299 21.0869 12.679 20.8409 12.969C20.6059 13.247 20.2609 13.375 19.8439 13.375H17.7689C17.3989 13.375 17.0569 13.255 16.7889 13.045C16.5989 12.919 16.3289 12.648 15.9359 12.205C15.6338 11.8603 15.3217 11.5245 14.9999 11.198C14.1529 10.395 13.5409 10 13.2699 10C13.1909 10 13.1669 10.006 13.1919 9.985C13.2499 9.935 13.2429 9.961 13.2379 10.133C13.2189 10.265 13.2079 10.615 13.2079 11.153L13.2059 12.025C13.2429 12.467 13.1119 12.839 12.7739 13.08C12.4569 13.292 11.9569 13.375 11.2309 13.375C10.0369 13.375 8.83795 13.022 7.63995 12.323C6.44995 11.628 5.41095 10.64 4.53595 9.375C3.7532 8.32496 3.06739 7.20603 2.48695 6.032C2.08563 5.23994 1.73396 4.4237 1.43395 3.588C1.25795 2.96 1.16895 2.516 1.16895 2.223C1.16895 1.528 1.64394 1.125 2.37194 1.125H4.44595C4.81795 1.125 5.12995 1.22 5.36295 1.431C5.57095 1.62 5.72095 1.904 5.83295 2.268C6.15295 3.183 6.54095 4.074 6.99995 4.948C7.40695 5.738 7.80995 6.378 8.20795 6.863C8.41195 7.113 8.58094 7.279 8.68794 7.37C8.69105 7.30672 8.69238 7.24336 8.69195 7.18L8.69295 4.152C8.68076 3.86814 8.61065 3.58977 8.48695 3.334C8.41394 3.18071 8.32041 3.03807 8.20894 2.91C7.97794 2.63 7.84895 2.371 7.84895 2.1C7.84882 1.96543 7.87791 1.83243 7.93419 1.7102C7.99048 1.58796 8.07262 1.4794 8.17495 1.392C8.37195 1.217 8.61295 1.125 8.87595 1.125H12.1459C12.5059 1.125 12.8059 1.245 12.9949 1.515C13.1479 1.734 13.2079 2.024 13.2079 2.398V6.511C13.2969 6.454 13.4459 6.317 13.6379 6.106C14.0609 5.638 14.4879 5.054 14.9139 4.359C15.2099 3.859 15.4949 3.311 15.7759 2.702L16.1129 2.032C16.3529 1.448 16.8279 1.125 17.4539 1.125H19.5279C20.4069 1.125 20.8679 1.681 20.6479 2.514H20.6469Z" stroke="#CCCCCC" stroke-linecap="round" stroke-linejoin="round"/>
</svg>
