<svg width="40" height="40" viewBox="0 0 40 40" fill="none" xmlns="http://www.w3.org/2000/svg">
<g clip-path="url(#clip0)">
<path d="M34.5425 0.769653H10.323C7.31079 0.774094 4.86996 3.21492 4.86552 6.22713V28.3476C1.86926 28.6748 -0.294451 31.369 0.0327146 34.3653C0.335863 37.1417 2.68617 39.2411 5.47909 39.2303H25.2099C28.2222 39.2259 30.663 36.785 30.6674 33.7728V11.6846H34.5425C37.5567 11.6846 40 9.24125 40 6.22713C40 3.213 37.5566 0.769653 34.5425 0.769653ZM21.3429 37.6157H5.47909C3.35453 37.6157 1.63221 35.8934 1.63221 33.7688C1.63221 31.6442 3.35453 29.9219 5.47909 29.9219H21.3429C19.2233 32.0485 19.2233 35.489 21.3429 37.6157ZM29.0609 6.22682V33.7728C29.0609 35.8952 27.3404 37.6157 25.218 37.6157C23.0957 37.6157 21.3752 35.8952 21.3752 33.7728C21.3752 31.6505 23.0957 29.93 25.218 29.93C25.6639 29.93 26.0253 29.5685 26.0253 29.1227C26.0253 28.6768 25.6639 28.3154 25.218 28.3154H6.51245V6.22713C6.51679 4.11912 8.21509 2.40639 10.323 2.38429H30.6432C29.6281 3.40535 29.0591 4.78707 29.0609 6.22682ZM33.7352 10.07H30.6755V8.74596H33.7352V10.07ZM35.3499 9.98923V9.98116V7.93864C35.3499 7.4928 34.9884 7.13132 34.5425 7.13132H30.6755V6.22713C30.6811 4.10479 32.4063 2.38893 34.5286 2.39458C36.651 2.40023 38.3668 4.12537 38.3612 6.24771C38.3563 8.04581 37.1053 9.6001 35.3499 9.98923Z" fill="#F6FCFF"/>
<path d="M23.5549 8.77826H11.7438C11.298 8.77826 10.9365 9.13974 10.9365 9.58558C10.9365 10.0314 11.298 10.3929 11.7438 10.3929H23.5549C24.0008 10.3929 24.3622 10.0314 24.3622 9.58558C24.3622 9.13974 24.0008 8.77826 23.5549 8.77826Z" fill="#F6FCFF"/>
<path d="M23.5549 14.5425H11.7438C11.298 14.5425 10.9365 14.904 10.9365 15.3499C10.9365 15.7957 11.298 16.1572 11.7438 16.1572H23.5549C24.0008 16.1572 24.3622 15.7957 24.3622 15.3499C24.3622 14.904 24.0008 14.5425 23.5549 14.5425Z" fill="#F6FCFF"/>
<path d="M23.5549 20.3068H11.7438C11.298 20.3068 10.9365 20.6683 10.9365 21.1141C10.9365 21.56 11.298 21.9215 11.7438 21.9215H23.5549C24.0008 21.9215 24.3622 21.56 24.3622 21.1141C24.3622 20.6683 24.0008 20.3068 23.5549 20.3068Z" fill="#F6FCFF"/>
</g>
<defs>
<clipPath id="clip0">
</clipPath>
</defs>
</svg>
