<svg width="14" height="14" viewBox="0 0 14 14" fill="none" xmlns="http://www.w3.org/2000/svg">
<path d="M6.62217 1.08695C6.74669 0.728731 7.25331 0.728731 7.37783 1.08696L8.78952 5.14823C8.84445 5.30626 8.99193 5.41341 9.1592 5.41682L13.4579 5.50442C13.8371 5.51215 13.9937 5.99396 13.6915 6.22308L10.2652 8.82069C10.1319 8.92177 10.0755 9.09514 10.124 9.25527L11.3691 13.3707C11.4789 13.7337 11.069 14.0315 10.7577 13.8149L7.22847 11.359C7.09115 11.2634 6.90885 11.2634 6.77153 11.359L3.24228 13.8149C2.93098 14.0315 2.52113 13.7337 2.63095 13.3707L3.87602 9.25527C3.92446 9.09514 3.86813 8.92177 3.73481 8.82069L0.308549 6.22308C0.00633574 5.99396 0.162888 5.51215 0.542058 5.50442L4.8408 5.41682C5.00807 5.41341 5.15555 5.30626 5.21048 5.14823L6.62217 1.08695Z" fill="#299D30"/>
</svg>
