<svg width="40" height="40" viewBox="0 0 40 40" fill="none" xmlns="http://www.w3.org/2000/svg">
<path d="M39.6105 0.163462C39.322 -0.0381002 38.9446 -0.0540376 38.6401 0.119996L0.45846 21.9381C0.14687 22.1156 -0.0307433 22.4601 0.00479638 22.8171C0.040336 23.174 0.281784 23.4767 0.62184 23.5895L12.0238 27.3898L16.419 39.4035C16.5513 39.7649 16.8948 40.0001 17.2721 40.0001C17.3067 40.0001 17.3423 39.9983 17.3769 39.9939C17.6225 39.9657 17.8292 39.8336 17.9752 39.6503L17.9841 39.6574L24.4521 31.5329L33.349 34.4985C33.4431 34.5305 33.5399 34.5456 33.6366 34.5456C33.8 34.5456 33.9625 34.5012 34.1054 34.4151C34.3335 34.2784 34.4898 34.0484 34.5333 33.7857L39.9878 1.05852C40.0455 0.712068 39.899 0.364086 39.6105 0.163462ZM3.12623 22.508L33.3765 5.22151L12.4888 25.6289L3.12623 22.508ZM17.8208 28.0664C17.7276 28.1934 17.6681 28.3416 17.6495 28.4979L16.8283 35.2291L13.7833 26.9062L31.5629 9.53579L17.8208 28.0664ZM18.5645 36.0089L19.3194 29.8219L22.6154 30.9205L18.5645 36.0089ZM32.9148 32.4378L20.029 28.1425L37.5737 4.48243L32.9148 32.4378Z" fill="#F6FCFF"/>
</svg>
